<?xml version="1.0" encoding="utf-8"?>
<!-- Generator: Adobe Illustrator 21.1.0, SVG Export Plug-In . SVG Version: 6.00 Build 0)  -->
<svg version="1.1" id="Facebook_Messenger" xmlns="http://www.w3.org/2000/svg" xmlns:xlink="http://www.w3.org/1999/xlink" x="0px"
	 y="0px" viewBox="0 0 110.4 25.2" style="enable-background:new 0 0 110.4 25.2;" xml:space="preserve">
<style type="text/css">
	.st0{fill:#0084FF;}
	.st1{enable-background:new    ;}
	.st2{fill:#3B414D;}
</style>
<title>logo</title>
<g id="Facebook_Messenger-2">
	<path class="st0" d="M12.5,0C5.6,0,0,5.2,0,11.7c0,3.6,1.8,7,4.7,9.1v4.4l4.3-2.4c1.2,0.3,2.4,0.5,3.6,0.5
		c6.9,0,12.5-5.2,12.5-11.7S19.5,0,12.5,0z M13.8,15.7l-3.2-3.4l-6.2,3.4l6.8-7.3l3.3,3.4l6.1-3.4L13.8,15.7z"/>
</g>
<g class="st1">
	<path class="st2" d="M32.2,18V6.8h1.7l3.5,8h0.1l3.5-8h1.7V18h-1.5v-7.9h-0.1l-3,6.7h-1.3l-3-6.7h-0.1V18H32.2z"/>
	<path class="st2" d="M44.6,14.3v-1.2c0-2.5,1.6-3.9,3.7-3.9c2.1,0,3.7,1.5,3.7,3.9v1h-5.7v0.4c0,1.3,0.8,2.2,2.1,2.2
		c1,0,1.7-0.5,1.8-1h1.7c-0.1,1-1.2,2.4-3.4,2.4C46.1,18.2,44.6,16.7,44.6,14.3z M50.3,12.9v-0.1c0-1.3-0.8-2.2-2-2.2s-2,0.9-2,2.2
		v0.1H50.3z"/>
	<path class="st2" d="M56.6,9.2c1.9,0,3.2,1,3.2,2.5h-1.5c-0.1-0.6-0.6-1.2-1.7-1.2c-1,0-1.7,0.4-1.7,1.2c0,1,1.2,1.1,2.2,1.3
		c1.6,0.3,2.9,0.8,2.9,2.4c0,1.8-1.4,2.8-3.5,2.8c-2,0-3.3-0.9-3.3-2.5h1.6c0.1,0.7,0.6,1.2,1.8,1.2c1.3,0,1.8-0.6,1.8-1.3
		c0-0.9-1-1.1-2.2-1.3c-1.6-0.3-2.9-0.8-2.9-2.5C53.3,10,54.9,9.2,56.6,9.2z"/>
	<path class="st2" d="M64.6,9.2c1.9,0,3.2,1,3.2,2.5h-1.5c-0.1-0.6-0.6-1.2-1.7-1.2c-1,0-1.7,0.4-1.7,1.2c0,1,1.2,1.1,2.2,1.3
		c1.6,0.3,2.9,0.8,2.9,2.4c0,1.8-1.4,2.8-3.5,2.8c-2,0-3.3-0.9-3.3-2.5h1.6c0.1,0.7,0.6,1.2,1.8,1.2c1.3,0,1.8-0.6,1.8-1.3
		c0-0.9-1-1.1-2.2-1.3c-1.6-0.3-2.9-0.8-2.9-2.5C61.3,10,62.9,9.2,64.6,9.2z"/>
	<path class="st2" d="M69.3,14.3v-1.2c0-2.5,1.6-3.9,3.7-3.9c2.1,0,3.7,1.5,3.7,3.9v1h-5.7v0.4c0,1.3,0.8,2.2,2.1,2.2
		c1,0,1.7-0.5,1.8-1h1.7c-0.1,1-1.2,2.4-3.4,2.4C70.7,18.2,69.3,16.7,69.3,14.3z M74.9,12.9v-0.1c0-1.3-0.8-2.2-2-2.2s-2,0.9-2,2.2
		v0.1H74.9z"/>
	<path class="st2" d="M78.3,9.3h1.6v1.6H80c0.2-0.7,0.8-1.7,2.6-1.7c1.8,0,2.9,1,2.9,2.9V18h-1.7v-5.4c0-1.3-0.7-1.9-1.8-1.9
		c-1.4,0-2.2,1.1-2.2,2.5V18h-1.7V9.3z"/>
	<path class="st2" d="M93.1,17.8v-1.3H93c-0.3,0.8-1.2,1.4-2.4,1.4c-1.9,0-3.4-1.4-3.4-3.7V13c0-2.4,1.5-3.7,3.4-3.7
		c1.3,0,2.2,0.7,2.5,1.4h0.1V9.3h1.6v8.5c0,2.4-1.7,3.4-3.9,3.4c-2.3,0-3.4-1.1-3.5-2.4h1.7c0.1,0.6,0.8,1,1.9,1
		C92.4,19.9,93.1,19.1,93.1,17.8z M88.9,13.2V14c0,1.5,0.9,2.5,2.2,2.5c1.3,0,2-1.1,2-2.3V13c0-1.3-0.8-2.3-2.1-2.3
		C89.7,10.7,88.9,11.7,88.9,13.2z"/>
	<path class="st2" d="M96.5,14.3v-1.2c0-2.5,1.6-3.9,3.7-3.9c2.1,0,3.7,1.5,3.7,3.9v1h-5.7v0.4c0,1.3,0.8,2.2,2.1,2.2
		c1,0,1.7-0.5,1.8-1h1.7c-0.1,1-1.2,2.4-3.4,2.4C98,18.2,96.5,16.7,96.5,14.3z M102.2,12.9v-0.1c0-1.3-0.8-2.2-2-2.2s-2,0.9-2,2.2
		v0.1H102.2z"/>
	<path class="st2" d="M105.7,9.3h1.7v1.4h0.1c0.2-0.6,0.8-1.5,2.3-1.5c0.2,0,0.4,0,0.6,0v1.6c-0.1,0-0.5-0.1-0.7-0.1
		c-1.5,0-2.2,0.9-2.2,2.1V18h-1.7V9.3z"/>
</g>
</svg>
