<?xml version="1.0" encoding="UTF-8"?>
<svg width="20px" height="20px" viewBox="0 0 20 20" version="1.1" xmlns="http://www.w3.org/2000/svg" xmlns:xlink="http://www.w3.org/1999/xlink">
    <!-- Generator: Sketch 48.2 (47327) - http://www.bohemiancoding.com/sketch -->
    <title>noun_761355_cc</title>
    <desc>Created with Sketch.</desc>
    <defs></defs>
    <g id="Page-1" stroke="none" stroke-width="1" fill="none" fill-rule="evenodd">
        <g id="noun_761355_cc" fill="#000000" fill-rule="nonzero">
            <g id="Group">
                <g id="Shape">
                    <path d="M1.96951128,2.5329515 L4.1004815,2.5329515 C4.64664338,2.5329515 5.17809255,2.27195102 5.29292075,1.94999065 C5.67506188,0.8785266 6.867503,0.009933375 7.95416628,0.009933375 L12.1041635,0 C13.1917876,0 14.383141,0.868237675 14.765409,1.9400573 C14.8266658,2.11181172 15.3557807,2.5329515 15.8995185,2.5329515 L18.0304887,2.5329515 C19.1182198,2.5329515 20,3.4021309 20,4.4731717 L20,18.0597798 C20,19.1313338 19.1165651,20 18.0304887,20 L1.96951128,20 C0.881780225,20 0,19.1308206 0,18.0597798 L0,4.4731717 C0,3.40161765 0.883434925,2.5329515 1.96951128,2.5329515 Z M10,17.0888253 C13.2635008,17.0888253 15.9090909,14.4820706 15.9090909,11.2664758 C15.9090909,8.0508809 13.2635008,5.44412623 10,5.44412623 C6.7364992,5.44412623 4.0909091,8.0508809 4.0909091,11.2664758 C4.0909091,14.4820706 6.7364992,17.0888253 10,17.0888253 Z M10,14.1776505 C8.3682496,14.1776505 7.04545455,12.8742732 7.04545455,11.2664757 C7.04545455,9.65867833 8.3682496,8.355301 10,8.355301 C11.6317504,8.355301 12.9545454,9.65867833 12.9545454,11.2664757 C12.9545454,12.8742732 11.6317504,14.1776505 10,14.1776505 Z"></path>
                </g>
            </g>
        </g>
    </g>
</svg>