<?xml version="1.0" encoding="utf-8"?>
<!-- Generator: Adobe Illustrator 21.1.0, SVG Export Plug-In . SVG Version: 6.00 Build 0)  -->
<svg version="1.1" id="Layer_1" xmlns="http://www.w3.org/2000/svg" xmlns:xlink="http://www.w3.org/1999/xlink" x="0px" y="0px"
	 viewBox="0 0 32 32" style="enable-background:new 0 0 32 32;" xml:space="preserve">
<style type="text/css">
	.st0{fill:#CCCCCC;}
</style>
<path class="st0" d="M31.4,28.6l-7.9-7.9c1.6-2.1,2.5-4.8,2.5-7.7c0-7.2-5.8-13-13-13C5.8,0,0,5.8,0,13s5.8,13,13,13
	c2.9,0,5.5-0.9,7.7-2.5l7.9,7.9c0.8,0.8,2,0.8,2.8,0S32.2,29.4,31.4,28.6z M4,13c0-5,4-9,9-9c5,0,9,4,9,9s-4,9-9,9C8,22,4,18,4,13z"
	/>
</svg>
