<?xml version="1.0" encoding="utf-8"?>
<!-- Generator: Adobe Illustrator 21.1.0, SVG Export Plug-In . SVG Version: 6.00 Build 0)  -->
<svg version="1.1" id="Layer_1" xmlns="http://www.w3.org/2000/svg" xmlns:xlink="http://www.w3.org/1999/xlink" x="0px" y="0px"
	 viewBox="0 0 50.9 51" style="enable-background:new 0 0 50.9 51;" xml:space="preserve">
<style type="text/css">
	.st0{fill:#9197A5;}
</style>
<path class="st0" d="M44.9,28c0-0.8,0.2-1.8,0.2-2.6s0-1.8-0.2-2.6l5.5-3.8c0.5-0.2,0.8-1,0.2-1.8l-5.3-8.9c-0.2-0.8-1.1-1-1.6-0.8
	l-6.3,2.9c-1.3-1-3.2-2-4.7-2.6L32,1.3C32,0.5,31.5,0,30.7,0H20.3C19.5,0,19,0.5,19,1.3l-0.8,6.3c-1.8,0.8-3.4,1.5-4.7,2.6L7.2,7.6
	c-0.5-0.2-1.3,0-1.6,0.5L0.4,17c-0.5,0.8-0.5,1.5,0.2,1.8l5.5,4.1c0,0.8-0.2,1.8-0.2,2.6s0,1.8,0.2,2.6l-5.5,3.8
	c-0.5,0.2-0.8,1-0.2,1.8l5.3,8.9c0.2,0.8,1.1,1,1.6,0.8l6.3-2.8c1.3,1,3.2,2,4.7,2.6l0.8,6.6c0,0.8,0.5,1.3,1.3,1.3h10.5
	c0.8,0,1.3-0.5,1.3-1.3l0.8-6.6c1.8-0.8,3.4-1.5,4.7-2.6l6.3,2.8c0.5,0.2,1.3,0,1.6-0.5l5.3-8.9c0.2-0.5,0.2-1.3-0.2-1.8L44.9,28z
	 M25.5,35.6c-5.7,0-10.5-4.6-10.5-10.2s4.7-10.2,10.5-10.2S36,19.9,36,25.5S31.2,35.6,25.5,35.6z"/>
</svg>
