<?xml version="1.0" encoding="utf-8"?>
<!-- Generator: Adobe Illustrator 21.1.0, SVG Export Plug-In . SVG Version: 6.00 Build 0)  -->
<svg version="1.1" id="Layer_1" xmlns="http://www.w3.org/2000/svg" xmlns:xlink="http://www.w3.org/1999/xlink" x="0px" y="0px"
	 viewBox="0 0 20 20" style="enable-background:new 0 0 20 20;" xml:space="preserve">
<g>
	<path d="M10,0C4.5,0,0,4.5,0,10s4.5,10,10,10s10-4.5,10-10S15.5,0,10,0z M10,18c-4.4,0-8-3.6-8-8s3.6-8,8-8s8,3.6,8,8
		S14.4,18,10,18z"/>
	<path d="M12.4,13.2c-1.4,1.1-3.4,1.1-4.8,0c-0.4-0.3-1.1-0.2-1.4,0.2S6,14.5,6.4,14.8C7.5,15.6,8.7,16,10,16s2.5-0.4,3.6-1.2
		c0.4-0.3,0.5-1,0.2-1.4C13.5,13,12.8,12.9,12.4,13.2z"/>
	<circle cx="6.5" cy="7.5" r="1.5"/>
	<circle cx="13.5" cy="7.5" r="1.5"/>
</g>
</svg>
